<svg xmlns="http://www.w3.org/2000/svg" xmlns:xlink="http://www.w3.org/1999/xlink" viewBox="0 0 63.54 35.85"><defs><style>.cls-1{fill:url(#linear-gradient);}.cls-2{fill:#231815;}.cls-3{fill:#898989;}</style><linearGradient id="linear-gradient" x1="111.69" y1="21.16" x2="35.99" y2="22.35" gradientTransform="translate(-44 -8)" gradientUnits="userSpaceOnUse"><stop offset="0" stop-color="#fff"/><stop offset="0.25" stop-color="#c2db81"/><stop offset="0.52" stop-color="#8fc31f"/><stop offset="0.97" stop-color="#94c528"/></linearGradient></defs><title>GC_logo資產 1</title><g id="圖層_2" data-name="圖層 2"><g id="圖層_1-2" data-name="圖層 1"><path class="cls-1" d="M4,0C1.91,0,.24.71.24,1.59V25.5c0,.89,1.67,1.6,3.72,1.6s3.73-.71,3.73-1.6V1.59C7.69.71,6,0,4,0Zm8.88,4.88c-1.89,0-3.43.61-3.43,1.36V26.65C9.41,27.4,11,28,12.84,28s3.44-.61,3.44-1.36V6.24C16.28,5.49,14.74,4.88,12.84,4.88ZM21,7.07c-1.66,0-3,.55-3,1.23V26.82c0,.68,1.35,1.23,3,1.23s3-.55,3-1.23V8.3C24,7.62,22.67,7.07,21,7.07Zm7.44-1.91c-1.5,0-2.71.49-2.71,1.1V22.67c0,.6,1.21,1.09,2.71,1.09s2.72-.49,2.72-1.09V6.26C31.17,5.65,30,5.16,28.45,5.16ZM36,3c-1.42,0-2.57.42-2.57.95V18.23c0,.52,1.15.95,2.57.95s2.58-.43,2.58-.95V3.92C38.62,3.39,37.47,3,36,3Zm6.42-.08c-1.17,0-2.12.34-2.12.76V15c0,.42.95.76,2.12.76s2.11-.34,2.11-.76V3.65C44.57,3.23,43.62,2.89,42.46,2.89Zm5.72,1c-1,0-1.82.27-1.82.59v8.84c0,.33.82.59,1.82.59S50,13.7,50,13.37V4.53C50,4.21,49.19,3.94,48.18,3.94Zm5.51,2.67c-.89,0-1.61.22-1.61.49v7.26c0,.27.72.48,1.61.48s1.61-.21,1.61-.48V7.1C55.3,6.83,54.58,6.61,53.69,6.61Zm4.8,3.88c-.7,0-1.26.18-1.26.4v6c0,.22.56.4,1.26.4s1.25-.18,1.25-.4v-6C59.74,10.67,59.18,10.49,58.49,10.49Zm3.93,3.4c-.62,0-1.12.15-1.12.34v5.1c0,.19.5.34,1.12.34s1.12-.15,1.12-.34v-5.1C63.54,14,63,13.89,62.42,13.89Z"/><path class="cls-2" d="M4.94,31.1l-.47,0a3.19,3.19,0,0,0-.4-.93,3.49,3.49,0,0,0-.64-.73,3.25,3.25,0,0,0-1-.54,2.05,2.05,0,0,0-1-.08,1.26,1.26,0,0,0-.71.4,1.26,1.26,0,0,0-.26.8,1.89,1.89,0,0,0,.26,1,2.91,2.91,0,0,0,.75.9,2.4,2.4,0,0,0,1.19.58,1.23,1.23,0,0,0,1-.23l-1.21-1,.22-.27,1.64,1.36a1.61,1.61,0,0,1-1.38.6,2.92,2.92,0,0,1-1.7-.77A3.18,3.18,0,0,1,0,30.2a1.62,1.62,0,0,1,.31-1.34,1.52,1.52,0,0,1,.89-.52,2.33,2.33,0,0,1,1.19.08,3.8,3.8,0,0,1,1.23.69,4.16,4.16,0,0,1,.8.89A3.8,3.8,0,0,1,4.94,31.1Z"/><path class="cls-2" d="M7,31.89a2.11,2.11,0,0,1,1.19.86,1.24,1.24,0,0,1,.17,1.09,1.22,1.22,0,0,1-.81.77,2.13,2.13,0,0,1-1.43,0,2.16,2.16,0,0,1-1.17-.83,1.19,1.19,0,0,1,.58-1.87A2.07,2.07,0,0,1,7,31.89Zm-.1.32a1.6,1.6,0,0,0-1.06,0,.91.91,0,0,0-.63.6.83.83,0,0,0,0,.58,1.19,1.19,0,0,0,.37.53,1.77,1.77,0,0,0,.63.35,2.08,2.08,0,0,0,.73.1,1.28,1.28,0,0,0,.61-.22.88.88,0,0,0,.35-.46,1,1,0,0,0-.16-.86A1.6,1.6,0,0,0,6.85,32.21Z"/><path class="cls-2" d="M9.7,31.59l.46.08L9.5,35.35,9,35.27Z"/><path class="cls-2" d="M14.7,32.11l-.26,3.74-.46,0,0-.46a2.27,2.27,0,0,1-.69.36,2.38,2.38,0,0,1-.81.07,2.08,2.08,0,0,1-1.29-.51,1.19,1.19,0,0,1,.14-2A2.14,2.14,0,0,1,12.72,33a2.19,2.19,0,0,1,.8.2,1.73,1.73,0,0,1,.61.46l.11-1.53Zm-2,1.18a1.8,1.8,0,0,0-.74.09,1.26,1.26,0,0,0-.55.36.89.89,0,0,0-.24.53.91.91,0,0,0,.16.56,1.34,1.34,0,0,0,.5.44,1.88,1.88,0,0,0,.71.2,2.06,2.06,0,0,0,.74-.09,1.29,1.29,0,0,0,.56-.36.87.87,0,0,0,.22-.54,1,1,0,0,0-.36-.81A1.59,1.59,0,0,0,12.74,33.29Z"/><path class="cls-2" d="M18.87,34.79l.4.13a2,2,0,0,1-.42.48,2.12,2.12,0,0,1-.56.29,2.25,2.25,0,0,1-.72.13,2.07,2.07,0,0,1-1.41-.36A1.2,1.2,0,0,1,16,33.57,2,2,0,0,1,17.4,33a2,2,0,0,1,1.51.44,1.2,1.2,0,0,1,.45.9l-3.27.17a.93.93,0,0,0,.44.75,1.54,1.54,0,0,0,1,.26,2.36,2.36,0,0,0,.53-.1,1.51,1.51,0,0,0,.44-.22A1.85,1.85,0,0,0,18.87,34.79Zm0-.73a1,1,0,0,0-.3-.43,1.27,1.27,0,0,0-.48-.24,1.88,1.88,0,0,0-.63-.07,1.67,1.67,0,0,0-.91.3,1.15,1.15,0,0,0-.39.58Z"/><path class="cls-2" d="M20.22,32.84l.47-.07.07.48a1.77,1.77,0,0,1,.55-.51,1.93,1.93,0,0,1,.72-.25,1.51,1.51,0,0,1,.74,0,1,1,0,0,1,.53.33,1.84,1.84,0,0,1,.27.78L23.79,35l-.46.08-.2-1.28a2.36,2.36,0,0,0-.15-.6.68.68,0,0,0-.38-.35,1.1,1.1,0,0,0-.61,0,1.36,1.36,0,0,0-.72.32,1,1,0,0,0-.36.58,2.56,2.56,0,0,0,0,.74l.16,1-.46.07Z"/><path class="cls-3" d="M30.5,29.71l-.27.35a2.08,2.08,0,0,0-.9-.14,3.1,3.1,0,0,0-1.91.83,2.14,2.14,0,0,0-.51.82,1.37,1.37,0,0,0,.05.85,1.33,1.33,0,0,0,1,.79,2.87,2.87,0,0,0,3-1.4l.44.06a2.45,2.45,0,0,1-.65.85,3.79,3.79,0,0,1-1.06.64,3.08,3.08,0,0,1-2.14.19,1.67,1.67,0,0,1-1.07-1A1.64,1.64,0,0,1,26.66,31a3.19,3.19,0,0,1,1.55-1.23,3.63,3.63,0,0,1,1.23-.28A2.26,2.26,0,0,1,30.5,29.71Z"/><path class="cls-3" d="M30.39,28.76l.4-.25.81,1.29a2.12,2.12,0,0,1,.31-.68,2.28,2.28,0,0,1,.55-.52,1.88,1.88,0,0,1,.7-.26,1.15,1.15,0,0,1,.62.1,1.78,1.78,0,0,1,.56.61l.74,1.17-.39.25L34,29.39a2.16,2.16,0,0,0-.38-.5.72.72,0,0,0-.48-.18,1.25,1.25,0,0,0-.58.21,1.46,1.46,0,0,0-.54.59,1.09,1.09,0,0,0-.1.67,2.93,2.93,0,0,0,.34.66l.53.84-.39.25Z"/><path class="cls-3" d="M37.3,25.33l1.56,2.2-.37.27-.27-.38a2,2,0,0,1-.31.71,2.42,2.42,0,0,1-.58.57,2.09,2.09,0,0,1-1.32.43,1.2,1.2,0,0,1-1.16-1.64A2.36,2.36,0,0,1,36.44,26a1.67,1.67,0,0,1,.77,0l-.29-.4Zm-1.38,1.3a1.87,1.87,0,0,0-.51.54,1.25,1.25,0,0,0-.19.63.88.88,0,0,0,.15.56.84.84,0,0,0,.48.33,1.26,1.26,0,0,0,.67,0,1.9,1.9,0,0,0,.67-.29,1.87,1.87,0,0,0,.51-.54,1.38,1.38,0,0,0,.21-.63.93.93,0,0,0-.17-.56,1,1,0,0,0-.8-.4A1.69,1.69,0,0,0,35.92,26.63Z"/><path class="cls-3" d="M38.29,24.55l.39-.24.25.4a1.53,1.53,0,0,1,.23-.58,1.77,1.77,0,0,1,.56-.53,1.37,1.37,0,0,1,.47-.19,1.12,1.12,0,0,1,.44,0,1.16,1.16,0,0,1,.41.17,1.48,1.48,0,0,1,.25-.71,1.73,1.73,0,0,1,1.21-.77,1,1,0,0,1,.57.12,1.59,1.59,0,0,1,.52.58L44.35,24l-.41.25L43.18,23a1.5,1.5,0,0,0-.38-.46.63.63,0,0,0-.39-.08,1.13,1.13,0,0,0-.46.17,1.32,1.32,0,0,0-.46.45,1,1,0,0,0-.15.56,1.92,1.92,0,0,0,.32.77l.55.91-.4.24-.72-1.18a1.77,1.77,0,0,0-.41-.53.63.63,0,0,0-.39-.09,1.1,1.1,0,0,0-.47.16,1.29,1.29,0,0,0-.45.45.94.94,0,0,0-.15.55,1.59,1.59,0,0,0,.27.71l.6,1-.4.24Z"/><path class="cls-3" d="M44.58,21l.45-.12.13.48a1.65,1.65,0,0,1,.5-.58,2.36,2.36,0,0,1,.75-.35,2.19,2.19,0,0,1,1.39.06,1.23,1.23,0,0,1,.8.82,1.25,1.25,0,0,1-.27,1.12,2.1,2.1,0,0,1-1.17.74,2.28,2.28,0,0,1-.81.08,1.91,1.91,0,0,1-.74-.21l.37,1.4-.45.12Zm1.88-.23a1.59,1.59,0,0,0-.91.57.94.94,0,0,0-.2.87.91.91,0,0,0,.32.48,1.19,1.19,0,0,0,.62.24,2.06,2.06,0,0,0,.74-.05,1.82,1.82,0,0,0,.65-.33,1.29,1.29,0,0,0,.41-.53.9.9,0,0,0,0-.58.89.89,0,0,0-.33-.47,1.28,1.28,0,0,0-.61-.25A1.7,1.7,0,0,0,46.46,20.76Z"/><path class="cls-3" d="M50,18.9a.44.44,0,0,1,.28.08.26.26,0,0,1,.11.2.22.22,0,0,1-.11.2.4.4,0,0,1-.27.09.4.4,0,0,1-.27-.08.23.23,0,0,1-.12-.2.24.24,0,0,1,.11-.2A.44.44,0,0,1,50,18.9ZM49.76,20h.47l0,2.7h-.48Z"/><path class="cls-3" d="M53.54,20.33a2.13,2.13,0,0,1,1.27.75A1.2,1.2,0,0,1,54.35,23a2.2,2.2,0,0,1-1.43.11,2.06,2.06,0,0,1-1.24-.72,1.17,1.17,0,0,1,.4-1.91A2.1,2.1,0,0,1,53.54,20.33Zm-.07.33a1.69,1.69,0,0,0-1,.09,1,1,0,0,0-.58.67.88.88,0,0,0,.07.57,1.17,1.17,0,0,0,.42.5,2,2,0,0,0,.66.29,1.81,1.81,0,0,0,.73,0,1.19,1.19,0,0,0,.59-.27.92.92,0,0,0,.31-.49,1,1,0,0,0-.24-.85A1.64,1.64,0,0,0,53.47,20.66Z"/><path class="cls-3" d="M56.83,21.43l.42.22-.22.43a1.91,1.91,0,0,1,.74-.09,2.19,2.19,0,0,1,.73.22,1.8,1.8,0,0,1,.57.47,1.09,1.09,0,0,1,.23.59,1.67,1.67,0,0,1-.24.79l-.64,1.23L58,25.08l.59-1.15a2.69,2.69,0,0,0,.24-.57.69.69,0,0,0-.1-.51,1.19,1.19,0,0,0-.47-.4,1.45,1.45,0,0,0-.78-.16,1,1,0,0,0-.63.25,3,3,0,0,0-.4.63l-.45.88-.42-.22Z"/></g></g></svg>