<?xml version="1.0" encoding="utf-8"?>
<!-- Generator: Adobe Illustrator 16.0.0, SVG Export Plug-In . SVG Version: 6.00 Build 0)  -->
<!DOCTYPE svg PUBLIC "-//W3C//DTD SVG 1.1//EN" "http://www.w3.org/Graphics/SVG/1.1/DTD/svg11.dtd">
<svg version="1.1" xmlns="http://www.w3.org/2000/svg" xmlns:xlink="http://www.w3.org/1999/xlink" x="0px" y="0px" width="768px"
	 height="97.688px" viewBox="0 0 768 97.688" enable-background="new 0 0 768 97.688" xml:space="preserve">
<g id="bg">
</g>
<g id="logo">
	<g>
		<g>
			<path d="M136.178,21.029c-3.646,0.958-6.797,2.289-9.47,4.026c-4.015,2.593-6.912,6.12-8.707,10.348
				c-1.805,4.227-2.556,9.111-2.558,14.604c0.001,4.884,0.595,9.281,1.994,13.173c1.047,2.916,2.559,5.537,4.577,7.791
				c3.03,3.385,7.165,5.885,12.381,7.502c5.224,1.625,11.549,2.405,19.188,2.407h61.153V64.804h-61.153
				c-3.526,0-6.377-0.254-8.636-0.723c-1.694-0.35-3.053-0.816-4.133-1.359c-1.621-0.83-2.629-1.79-3.388-3.008
				c-0.371-0.6-0.677-1.279-0.927-2.045h76.934V42.345h-76.927c0.194-0.594,0.415-1.148,0.68-1.643
				c0.467-0.867,1.042-1.597,1.806-2.252c1.145-0.98,2.763-1.809,5.143-2.402c2.374-0.59,5.483-0.922,9.448-0.922h61.153V19.133
				h-61.153C146.793,19.133,141.042,19.754,136.178,21.029z"/>
			<path d="M254.33,64.03c-1.844-0.271-3.307-0.66-4.416-1.129c-0.834-0.354-1.471-0.748-1.971-1.182
				c-0.744-0.654-1.233-1.393-1.604-2.474c-0.363-1.071-0.563-2.499-0.56-4.313v-35.8h-2.319h-17.844v35.8
				c0,4.53,0.747,8.507,2.375,11.915c1.217,2.553,2.934,4.764,5.099,6.58c3.253,2.73,7.457,4.58,12.546,5.758
				c5.096,1.176,11.107,1.692,18.122,1.694h51.817V64.554h-51.817C259.915,64.554,256.788,64.394,254.33,64.03z"/>
			<path d="M434.193,21.029c-3.648,0.958-6.8,2.289-9.47,4.026c-4.013,2.593-6.896,6.125-8.681,10.353
				c-1.793,4.224-2.537,9.108-2.537,14.6c0,4.882,0.588,9.278,1.976,13.169c1.042,2.914,2.545,5.539,4.56,7.789
				c3.019,3.391,7.149,5.891,12.368,7.508c5.229,1.625,11.567,2.405,19.237,2.407h61.044V64.554h-61.044
				c-4.323,0-7.614-0.365-10.031-1.016c-1.816-0.492-3.129-1.125-4.099-1.85c-0.727-0.545-1.274-1.145-1.727-1.84
				c-0.672-1.043-1.133-2.343-1.415-3.992c-0.286-1.643-0.385-3.607-0.383-5.849c-0.002-2.657,0.139-4.932,0.558-6.743
				c0.314-1.365,0.766-2.461,1.398-3.367c0.477-0.681,1.056-1.269,1.825-1.807c1.155-0.803,2.77-1.491,5.045-1.973
				c2.271-0.477,5.183-0.742,8.828-0.738h61.044v-2.32V19.133h-61.044C444.829,19.133,439.063,19.754,434.193,21.029z"/>
			<polygon points="522.81,19.133 522.81,80.881 542.971,80.881 542.971,19.133 540.651,19.133 			"/>
			<polygon points="549.617,34.542 586.528,34.542 586.528,80.881 588.848,80.881 606.688,80.881 606.688,34.542 643.595,34.542 
				643.595,19.133 549.617,19.133 			"/>
			<path d="M669.018,38.45c1.144-0.98,2.764-1.809,5.14-2.402c2.376-0.59,5.484-0.922,9.45-0.922h61.15V19.133h-61.15
				c-6.792,0-12.543,0.621-17.408,1.896c-3.645,0.958-6.797,2.289-9.47,4.026c-4.012,2.593-6.911,6.12-8.707,10.348
				c-1.803,4.227-2.554,9.111-2.556,14.604c0,4.884,0.594,9.281,1.992,13.173c1.049,2.916,2.56,5.537,4.579,7.791
				c3.028,3.385,7.162,5.885,12.379,7.502c5.225,1.625,11.551,2.405,19.19,2.407h61.15V64.804h-61.15
				c-3.528,0-6.379-0.254-8.638-0.723c-1.692-0.35-3.052-0.816-4.132-1.359c-1.619-0.83-2.626-1.79-3.389-3.008
				c-0.37-0.6-0.676-1.279-0.925-2.045h76.934V42.345h-76.927c0.193-0.594,0.414-1.148,0.679-1.643
				C667.68,39.835,668.253,39.105,669.018,38.45z"/>
		</g>
		<path fill="#ED1C24" d="M368.025,58.419c0-4.155,3.37-9.471,7.526-11.872l21.867-12.868c4.16-2.399,7.528-0.977,7.528,3.179
			v29.489c0,4.154-3.368,9.471-7.528,11.871l-21.867,12.868c-4.156,2.398-7.526,0.977-7.526-3.182V58.419z"/>
		<path d="M396.484,22.096L368.936,6.232c-1.05-0.604-2.22-0.906-3.392-0.906c-1.176,0-2.35,0.306-3.402,0.914l-35.555,20.577
			c-2.098,1.215-3.391,3.455-3.391,5.881v39.036c0,2.447,1.316,4.705,3.446,5.91L355.3,93.875c6.923,3.164,7.435-3.912,7.435-3.912
			v-7.814V56.595c0-5.029,4.075-11.455,9.102-14.356l23.983-14.114C396.771,27.522,399.795,25.224,396.484,22.096z"/>
		<path d="M50.526,50.475c0-4.121-3.341-9.39-7.46-11.771L17.437,23.909c-4.123-2.378-7.462-0.967-7.462,3.154v25.631
			c0,4.117,3.34,9.387,7.462,11.766l25.628,14.797c4.12,2.376,7.46,0.967,7.46-3.152V50.475z"/>
		<path d="M56.929,48.63c0-5.123,4.153-11.676,9.277-14.633L98.07,15.602c5.125-2.96,9.278-1.206,9.278,3.919v31.865
			c0,5.125-4.153,11.674-9.278,14.635L66.207,84.416c-5.124,2.957-9.277,1.205-9.277-3.919V48.63z"/>
	</g>
	<g>
		<path d="M755.26,80.881c-3.487,0-6.324-2.837-6.324-6.324s2.837-6.324,6.324-6.324s6.324,2.837,6.324,6.324
			S758.747,80.881,755.26,80.881z M755.26,69.232c-2.936,0-5.324,2.389-5.324,5.324s2.389,5.324,5.324,5.324
			s5.324-2.389,5.324-5.324S758.195,69.232,755.26,69.232z"/>
		<g>
			<path d="M753.137,70.69c0.484-0.099,1.178-0.153,1.838-0.153c1.022,0,1.683,0.187,2.145,0.604
				c0.374,0.33,0.583,0.836,0.583,1.408c0,0.979-0.615,1.629-1.396,1.893v0.033c0.571,0.198,0.913,0.726,1.089,1.496
				c0.242,1.034,0.418,1.749,0.572,2.035h-0.99c-0.121-0.209-0.286-0.847-0.495-1.771c-0.22-1.022-0.616-1.408-1.485-1.441h-0.902
				v3.213h-0.957V70.69z M754.094,74.068h0.979c1.023,0,1.672-0.562,1.672-1.408c0-0.957-0.692-1.375-1.705-1.387
				c-0.462,0-0.792,0.044-0.946,0.089V74.068z"/>
		</g>
	</g>
</g>
</svg>
