<svg xmlns="http://www.w3.org/2000/svg" width="929.6" height="147.2" viewBox="0 0 929.6 147.2"><g transform="translate(-0.5)"><path d="M122.5,0C55.1,0,.5,33,.5,73.6s54.6,73.6,122,73.6,122-33,122-73.6S189.9,0,122.5,0Zm72.2,88.3c-5-1.1-12.1-8.4-21.1-9.9-9.1-1.5-15.8-.4-19.9,7.6s-9.5,25.5-11,28.3-12.9,9.9-25.7.6c-2.6-1.7-7.3-9.7-5-19,2.4-9.3,14-9.5,15.1-2.6-2.4-.4-7.8.2-5.2,5.8s11.7,3.9,14-1.5c2.4-5.4,2.6-10.4-1.9-14.2-4.5-3.9-9.3-7.3-15.3-5.6s-13.6,7.8-18.1,10.1c-4.5,2.4-16.2,5.4-24.2,1.7s-17.7-14-25.9-16.8-12.7-5.6-19.4-3.9c-6.9,2.2-13.2,4.2-13.2,1.9.2-1.1,13.5-12.3,30.2-9.3C62.8,64.1,61.5,71,77,71.6c12.6.5,16-12.1,18.3-22,2.6-11,12.3-24.6,28.5-17,15.5,10.8,6.9,24,5.6,25.7s-10.8,5.6-10.4.6c1.1-1.3,4.5-3.2,4.3-5.4s-2.2-6.5-6.9-6.5a9.848,9.848,0,0,0-9.5,9.9c.2,5.6,1.3,14,16.6,15.5,10.6.2,17.5-12.1,31.9-13.4,14.5-1.3,23.3,7.8,35.6,16.2s32.2,3.5,36.9,1.7C225.1,81,216.2,90.3,194.7,88.3Z" fill="#374a87"/><path d="M297.3,113.5h-4a7.892,7.892,0,0,0-1.2-3,8.827,8.827,0,0,0-2.1-2.2,8.449,8.449,0,0,0-2.7-1.3,10.55,10.55,0,0,0-3.1-.4,9.978,9.978,0,0,0-5.4,1.5,10.279,10.279,0,0,0-3.8,4.4,17.1,17.1,0,0,0-1.4,7.2,17.435,17.435,0,0,0,1.4,7.2,9.729,9.729,0,0,0,3.8,4.4,9.978,9.978,0,0,0,5.4,1.5,10.551,10.551,0,0,0,3.1-.4,8.449,8.449,0,0,0,2.7-1.3,8.827,8.827,0,0,0,2.1-2.2,7.892,7.892,0,0,0,1.2-3h4a12.665,12.665,0,0,1-1.6,4.5,15.817,15.817,0,0,1-2.9,3.4,14.715,14.715,0,0,1-3.9,2.1,13.705,13.705,0,0,1-17.1-7.1,20.479,20.479,0,0,1-1.9-8.9,18.868,18.868,0,0,1,1.9-8.9,13.806,13.806,0,0,1,5.1-5.8,14.969,14.969,0,0,1,12-1.3,12.163,12.163,0,0,1,3.9,2.1,9.575,9.575,0,0,1,2.9,3.4A8.6,8.6,0,0,1,297.3,113.5Zm16.2,23a10.887,10.887,0,0,1-6.1-1.6,10.415,10.415,0,0,1-3.9-4.4,16.257,16.257,0,0,1,0-13.2,10.685,10.685,0,0,1,3.9-4.5,10.33,10.33,0,0,1,5.8-1.6,12.558,12.558,0,0,1,3.8.6,8.757,8.757,0,0,1,3.4,2.1,9.554,9.554,0,0,1,2.4,3.8,16.436,16.436,0,0,1,.9,5.8v1.6H304.8v-3.3h15.1a8.744,8.744,0,0,0-.8-3.7,6.4,6.4,0,0,0-2.3-2.6,6.756,6.756,0,0,0-3.5-.9,7.134,7.134,0,0,0-3.9,1.1,7.061,7.061,0,0,0-2.5,2.9,8.489,8.489,0,0,0-.9,3.8v2.2a9.615,9.615,0,0,0,1,4.7,6.36,6.36,0,0,0,2.7,2.9,8.8,8.8,0,0,0,6.7.6,5.71,5.71,0,0,0,2.1-1.3,7.706,7.706,0,0,0,1.4-2.1l3.6,1a8.365,8.365,0,0,1-5.3,5.5A18.933,18.933,0,0,1,313.5,136.5Zm19.7-15.3V136h-3.8V111.5H333v3.8h.3a7.475,7.475,0,0,1,2.6-3,7.941,7.941,0,0,1,4.5-1.2,8.931,8.931,0,0,1,4.4,1,7.274,7.274,0,0,1,2.9,3.1,11.489,11.489,0,0,1,1,5.2V136H345V120.7a6.438,6.438,0,0,0-1.5-4.5,5.279,5.279,0,0,0-4.1-1.6,6.6,6.6,0,0,0-3.2.8,5.437,5.437,0,0,0-2.2,2.3A6.269,6.269,0,0,0,333.2,121.2Zm33.2-9.7v3.2H353.7v-3.2Zm-9-5.9h3.8V129a4.772,4.772,0,0,0,.5,2.4,2.545,2.545,0,0,0,1.2,1.1,4.146,4.146,0,0,0,1.6.3,2.787,2.787,0,0,0,1-.1,1.759,1.759,0,0,1,.6-.1l.8,3.4a8.112,8.112,0,0,1-1.1.3,7.93,7.93,0,0,1-1.7.2,6.7,6.7,0,0,1-3.1-.7,6.41,6.41,0,0,1-2.5-2.1,5.583,5.583,0,0,1-1-3.5V105.6ZM372.1,136V111.5h3.6v3.7h.3a6.323,6.323,0,0,1,2.4-3,6.9,6.9,0,0,1,4-1.1h1.9v3.8a5.527,5.527,0,0,0-.9-.1,6.15,6.15,0,0,0-1.4-.1,6.6,6.6,0,0,0-3.2.8,6.09,6.09,0,0,0-2.2,2,5.831,5.831,0,0,0-.8,3V136Zm23.9.6a9.279,9.279,0,0,1-4.2-.9,6.956,6.956,0,0,1-3-2.6,7.586,7.586,0,0,1-1.1-4.1,6.835,6.835,0,0,1,.8-3.4,6.3,6.3,0,0,1,2.2-2.1,10.378,10.378,0,0,1,3.1-1.1,20.209,20.209,0,0,1,3.4-.6c1.5-.2,2.7-.3,3.6-.4a6.351,6.351,0,0,0,2-.5,1.435,1.435,0,0,0,.7-1.3v-.1a4.924,4.924,0,0,0-1.3-3.7,5.113,5.113,0,0,0-3.9-1.3,6.562,6.562,0,0,0-4.2,1.2,8.43,8.43,0,0,0-2.2,2.5l-3.6-1.3a7.877,7.877,0,0,1,2.6-3.5,11.63,11.63,0,0,1,3.5-1.8,16.517,16.517,0,0,1,3.8-.5,13.9,13.9,0,0,1,2.7.3,12.129,12.129,0,0,1,3,1.1,6.078,6.078,0,0,1,2.4,2.6,10.253,10.253,0,0,1,1,4.7V136h-3.8v-3.3h-.2a8.56,8.56,0,0,1-1.3,1.7,9.1,9.1,0,0,1-2.4,1.6A9.332,9.332,0,0,1,396,136.6Zm.6-3.4a7.629,7.629,0,0,0,3.8-.9,5.66,5.66,0,0,0,2.3-2.3,6.026,6.026,0,0,0,.8-2.9v-3.5a1.873,1.873,0,0,1-1.1.5c-.5.1-1.1.3-1.9.4-.7.1-1.4.2-2,.3s-1.2.1-1.6.2a10.713,10.713,0,0,0-2.7.6,4.644,4.644,0,0,0-2,1.3,3.374,3.374,0,0,0-.8,2.3,3.442,3.442,0,0,0,1.5,3A6.205,6.205,0,0,0,396.6,133.2Zm21.3-29.9V136h-3.8V103.3Zm26,32.7L435,103.3h4l6.8,26.7h.3l7-26.7h4.5l7,26.7h.3l6.8-26.7h4L466.8,136h-4.1l-7.2-26.1h-.3L448,136Zm44.3.5a10.887,10.887,0,0,1-6.1-1.6,10.415,10.415,0,0,1-3.9-4.4,16.257,16.257,0,0,1,0-13.2,10.685,10.685,0,0,1,3.9-4.5,10.33,10.33,0,0,1,5.8-1.6,12.558,12.558,0,0,1,3.8.6,8.757,8.757,0,0,1,3.4,2.1,9.554,9.554,0,0,1,2.4,3.8,16.436,16.436,0,0,1,.9,5.8v1.6H479.5v-3.3h15.1a8.744,8.744,0,0,0-.8-3.7,6.4,6.4,0,0,0-2.3-2.6,6.756,6.756,0,0,0-3.5-.9,7.134,7.134,0,0,0-3.9,1.1,7.061,7.061,0,0,0-2.5,2.9,8.489,8.489,0,0,0-.9,3.8v2.2a9.615,9.615,0,0,0,1,4.7,5.882,5.882,0,0,0,2.7,2.9,7.436,7.436,0,0,0,4,1,7.664,7.664,0,0,0,2.7-.4,5.71,5.71,0,0,0,2.1-1.3,7.706,7.706,0,0,0,1.4-2.1l3.6,1a8.365,8.365,0,0,1-5.3,5.5A17.8,17.8,0,0,1,488.2,136.5Zm23.1.1a9.279,9.279,0,0,1-4.2-.9,6.956,6.956,0,0,1-3-2.6A7.586,7.586,0,0,1,503,129a6.835,6.835,0,0,1,.8-3.4,6.3,6.3,0,0,1,2.2-2.1,9.471,9.471,0,0,1,3.1-1.1,20.209,20.209,0,0,1,3.4-.6c1.5-.2,2.7-.3,3.6-.4a6.351,6.351,0,0,0,2-.5,1.435,1.435,0,0,0,.7-1.3v-.1a4.924,4.924,0,0,0-1.3-3.7,5.113,5.113,0,0,0-3.9-1.3,6.562,6.562,0,0,0-4.2,1.2,8.43,8.43,0,0,0-2.2,2.5l-3.6-1.3a7.877,7.877,0,0,1,2.6-3.5,11.63,11.63,0,0,1,3.5-1.8,16.517,16.517,0,0,1,3.8-.5,13.9,13.9,0,0,1,2.7.3,12.129,12.129,0,0,1,3,1.1,6.079,6.079,0,0,1,2.4,2.6,10.253,10.253,0,0,1,1,4.7V136h-3.8v-3.3h-.2a8.56,8.56,0,0,1-1.3,1.7,9.1,9.1,0,0,1-2.4,1.6A8.992,8.992,0,0,1,511.3,136.6Zm.6-3.4a7.629,7.629,0,0,0,3.8-.9A5.66,5.66,0,0,0,518,130a6.026,6.026,0,0,0,.8-2.9v-3.5a1.873,1.873,0,0,1-1.1.5c-.5.1-1.2.3-1.9.4s-1.4.2-2,.3-1.2.1-1.6.2a10.713,10.713,0,0,0-2.7.6,4.644,4.644,0,0,0-2,1.3,3.374,3.374,0,0,0-.8,2.3,3.442,3.442,0,0,0,1.5,3A6.2,6.2,0,0,0,511.9,133.2Zm28.2-21.7v3.2H527.4v-3.2Zm-9-5.9h3.8V129a4.772,4.772,0,0,0,.5,2.4,2.545,2.545,0,0,0,1.2,1.1,4.146,4.146,0,0,0,1.6.3,2.787,2.787,0,0,0,1-.1,1.759,1.759,0,0,1,.6-.1l.8,3.4a8.111,8.111,0,0,1-1.1.3,7.93,7.93,0,0,1-1.7.2,6.7,6.7,0,0,1-3.1-.7,6.41,6.41,0,0,1-2.5-2.1,5.583,5.583,0,0,1-1-3.5V105.6Zm19,15.6V136h-3.8V103.3h3.8v12h.3a6.365,6.365,0,0,1,2.6-3,8.055,8.055,0,0,1,4.6-1.1,8.932,8.932,0,0,1,4.4,1,6.725,6.725,0,0,1,2.9,3.1,11.441,11.441,0,0,1,1.1,5.2V136h-3.8V120.7a6.272,6.272,0,0,0-1.5-4.5,5.359,5.359,0,0,0-4.2-1.6,7.308,7.308,0,0,0-3.3.8,5.659,5.659,0,0,0-2.3,2.3A7.245,7.245,0,0,0,550.1,121.2Zm33.1,15.3a10.887,10.887,0,0,1-6.1-1.6,10.415,10.415,0,0,1-3.9-4.4,16.257,16.257,0,0,1,0-13.2,10.685,10.685,0,0,1,3.9-4.5,10.33,10.33,0,0,1,5.8-1.6,12.558,12.558,0,0,1,3.8.6,8.757,8.757,0,0,1,3.4,2.1,9.554,9.554,0,0,1,2.4,3.8,16.435,16.435,0,0,1,.9,5.8v1.6H574.5v-3.3h15.1a8.744,8.744,0,0,0-.8-3.7,6.4,6.4,0,0,0-2.3-2.6,6.756,6.756,0,0,0-3.5-.9,7.135,7.135,0,0,0-3.9,1.1,7.061,7.061,0,0,0-2.5,2.9,8.49,8.49,0,0,0-.9,3.8v2.2a9.615,9.615,0,0,0,1,4.7,5.882,5.882,0,0,0,2.7,2.9,8.8,8.8,0,0,0,6.7.6,5.71,5.71,0,0,0,2.1-1.3,7.707,7.707,0,0,0,1.4-2.1l3.6,1a8.365,8.365,0,0,1-5.3,5.5A17.8,17.8,0,0,1,583.2,136.5Zm15.9-.5V111.5h3.6v3.7h.3a6.323,6.323,0,0,1,2.4-3,6.9,6.9,0,0,1,4-1.1h1.9v3.8a5.527,5.527,0,0,0-.9-.1,6.15,6.15,0,0,0-1.4-.1,6.6,6.6,0,0,0-3.2.8,6.089,6.089,0,0,0-2.2,2,5.831,5.831,0,0,0-.8,3V136Zm31.3,0h-4.2l12-32.7h4.1l12,32.7h-4.2l-9.8-27.6H640Zm1.5-12.8h16.7v3.5H631.9Zm36.3,13.3a9.056,9.056,0,0,1-5.4-1.6,10.081,10.081,0,0,1-3.7-4.4,15.875,15.875,0,0,1-1.3-6.8,15.413,15.413,0,0,1,1.3-6.7,9.6,9.6,0,0,1,9.2-5.9,7.956,7.956,0,0,1,3.8.8,5.408,5.408,0,0,1,2.1,1.8c.5.7.9,1.2,1.2,1.6h.3V103.2h3.8V136h-3.6v-3.8h-.4c-.3.4-.7,1-1.2,1.7a5.776,5.776,0,0,1-2.2,1.8A9.014,9.014,0,0,1,668.2,136.5Zm.5-3.4a5.955,5.955,0,0,0,3.8-1.2,8.316,8.316,0,0,0,2.4-3.3,14.8,14.8,0,0,0,.8-4.9,14.194,14.194,0,0,0-.8-4.8,6.533,6.533,0,0,0-6.3-4.4,6.547,6.547,0,0,0-4,1.2,7.463,7.463,0,0,0-2.4,3.3,13.6,13.6,0,0,0-.8,4.7,15.1,15.1,0,0,0,.8,4.8,7.561,7.561,0,0,0,2.4,3.4A7.072,7.072,0,0,0,668.7,133.1Zm18.2,2.9V111.5h3.6v3.8h.3a6.317,6.317,0,0,1,2.5-3.1,7.586,7.586,0,0,1,4.1-1.1,7,7,0,0,1,4,1.1,6.524,6.524,0,0,1,2.5,3.1h.3a6.778,6.778,0,0,1,2.8-3,8.358,8.358,0,0,1,4.5-1.1,7.31,7.31,0,0,1,5.4,2.1c1.4,1.4,2.1,3.5,2.1,6.4V136h-3.8V119.6a4.7,4.7,0,0,0-1.5-3.9,5.5,5.5,0,0,0-3.5-1.2,4.925,4.925,0,0,0-4,1.6,5.637,5.637,0,0,0-1.4,3.9v16H701V119.2a4.6,4.6,0,0,0-1.4-3.4,4.752,4.752,0,0,0-3.5-1.3,5.029,5.029,0,0,0-2.7.8,5.373,5.373,0,0,0-2,2.2,6.6,6.6,0,0,0-.8,3.2V136Zm39.1,0V111.5h3.8V136Zm1.9-28.6a2.732,2.732,0,0,1-1.9-.8,2.425,2.425,0,0,1,0-3.6,2.732,2.732,0,0,1,1.9-.8,2.364,2.364,0,0,1,1.9.8,2.425,2.425,0,0,1,0,3.6A2.732,2.732,0,0,1,727.9,107.4Zm12.5,13.8V136h-3.8V111.5h3.6v3.8h.3a7.476,7.476,0,0,1,2.6-3,7.941,7.941,0,0,1,4.5-1.2,8.932,8.932,0,0,1,4.4,1,7.274,7.274,0,0,1,2.9,3.1,11.489,11.489,0,0,1,1,5.2V136h-3.8V120.7a6.438,6.438,0,0,0-1.5-4.5,5.279,5.279,0,0,0-4.1-1.6,6.6,6.6,0,0,0-3.2.8,5.437,5.437,0,0,0-2.2,2.3A8.69,8.69,0,0,0,740.4,121.2ZM763,136V111.5h3.8V136Zm1.9-28.6a2.732,2.732,0,0,1-1.9-.8,2.425,2.425,0,0,1,0-3.6,2.732,2.732,0,0,1,1.9-.8,2.364,2.364,0,0,1,1.9.8,2.425,2.425,0,0,1,0,3.6A2.732,2.732,0,0,1,764.9,107.4Zm26.2,9.6-3.4,1a5.071,5.071,0,0,0-.9-1.6,4.532,4.532,0,0,0-1.7-1.3,5.439,5.439,0,0,0-2.7-.5,6.53,6.53,0,0,0-3.8,1,3.137,3.137,0,0,0-1.5,2.6,2.574,2.574,0,0,0,1,2.2,9.727,9.727,0,0,0,3.2,1.4l3.6.9a9.8,9.8,0,0,1,4.9,2.4,5.652,5.652,0,0,1,1.6,4.2,6.364,6.364,0,0,1-1.2,3.8,7.566,7.566,0,0,1-3.4,2.6,12.718,12.718,0,0,1-5,1,10.787,10.787,0,0,1-6.2-1.6,7.306,7.306,0,0,1-3.1-4.8l3.6-.9a5.225,5.225,0,0,0,1.9,3,6.324,6.324,0,0,0,3.8,1,7.234,7.234,0,0,0,4.2-1.1,3.573,3.573,0,0,0,1.6-2.7,2.583,2.583,0,0,0-.9-2.1,5.683,5.683,0,0,0-2.7-1.3l-4.1-1a10.23,10.23,0,0,1-5-2.5,6.309,6.309,0,0,1-.4-7.9,7.962,7.962,0,0,1,3.2-2.5,11.441,11.441,0,0,1,4.6-.9A8.979,8.979,0,0,1,788,113,6.688,6.688,0,0,1,791.1,117Zm16.8-5.5v3.2H795.2v-3.2Zm-9.1-5.9h3.8V129a4.772,4.772,0,0,0,.5,2.4,2.545,2.545,0,0,0,1.2,1.1,4.146,4.146,0,0,0,1.6.3,2.787,2.787,0,0,0,1-.1,1.759,1.759,0,0,1,.6-.1l.8,3.4a8.111,8.111,0,0,1-1.1.3,7.93,7.93,0,0,1-1.7.2,6.7,6.7,0,0,1-3.1-.7,6.41,6.41,0,0,1-2.5-2.1,5.583,5.583,0,0,1-1-3.5V105.6ZM813.5,136V111.5h3.6v3.7h.3a6.323,6.323,0,0,1,2.4-3,6.9,6.9,0,0,1,4-1.1h1.9v3.8a5.527,5.527,0,0,0-.9-.1,6.15,6.15,0,0,0-1.4-.1,6.6,6.6,0,0,0-3.2.8,6.089,6.089,0,0,0-2.2,2,5.831,5.831,0,0,0-.8,3V136Zm24,.6a9.279,9.279,0,0,1-4.2-.9,6.956,6.956,0,0,1-3-2.6,7.586,7.586,0,0,1-1.1-4.1,6.835,6.835,0,0,1,.8-3.4,6.3,6.3,0,0,1,2.2-2.1,9.472,9.472,0,0,1,3.1-1.1,20.208,20.208,0,0,1,3.4-.6c1.5-.2,2.7-.3,3.6-.4a6.351,6.351,0,0,0,2-.5,1.435,1.435,0,0,0,.7-1.3v-.1a4.924,4.924,0,0,0-1.3-3.7,5.113,5.113,0,0,0-3.9-1.3,6.562,6.562,0,0,0-4.2,1.2,8.43,8.43,0,0,0-2.2,2.5l-3.6-1.3a7.877,7.877,0,0,1,2.6-3.5,11.63,11.63,0,0,1,3.5-1.8,16.517,16.517,0,0,1,3.8-.5,13.9,13.9,0,0,1,2.7.3,12.129,12.129,0,0,1,3,1.1,6.079,6.079,0,0,1,2.4,2.6,10.253,10.253,0,0,1,1,4.7V136H845v-3.3h-.2a8.56,8.56,0,0,1-1.3,1.7,9.1,9.1,0,0,1-2.4,1.6A9.688,9.688,0,0,1,837.5,136.6Zm.6-3.4a7.629,7.629,0,0,0,3.8-.9,5.66,5.66,0,0,0,2.3-2.3,6.026,6.026,0,0,0,.8-2.9v-3.5a1.873,1.873,0,0,1-1.1.5c-.5.1-1.2.3-1.9.4s-1.4.2-2,.3-1.2.1-1.6.2a10.713,10.713,0,0,0-2.7.6,4.644,4.644,0,0,0-2,1.3,3.374,3.374,0,0,0-.8,2.3,3.442,3.442,0,0,0,1.5,3A6.006,6.006,0,0,0,838.1,133.2Zm28.2-21.7v3.2H853.6v-3.2Zm-9-5.9h3.8V129a4.772,4.772,0,0,0,.5,2.4,2.545,2.545,0,0,0,1.2,1.1,4.146,4.146,0,0,0,1.6.3,2.787,2.787,0,0,0,1-.1,1.759,1.759,0,0,1,.6-.1l.8,3.4a8.111,8.111,0,0,1-1.1.3,7.93,7.93,0,0,1-1.7.2,6.7,6.7,0,0,1-3.1-.7,6.41,6.41,0,0,1-2.5-2.1,5.583,5.583,0,0,1-1-3.5V105.6ZM872,136V111.5h3.8V136Zm1.9-28.6a2.732,2.732,0,0,1-1.9-.8,2.425,2.425,0,0,1,0-3.6,2.732,2.732,0,0,1,1.9-.8,2.364,2.364,0,0,1,1.9.8,2.425,2.425,0,0,1,0,3.6A2.732,2.732,0,0,1,873.9,107.4Zm18.7,29.1a10.108,10.108,0,0,1-5.8-1.6,10.415,10.415,0,0,1-3.9-4.4,16.493,16.493,0,0,1,0-13.3,9.859,9.859,0,0,1,3.9-4.4,10.33,10.33,0,0,1,5.8-1.6,10.108,10.108,0,0,1,5.8,1.6,10.415,10.415,0,0,1,3.9,4.4,15.4,15.4,0,0,1,1.4,6.7,14.941,14.941,0,0,1-1.4,6.6,9.859,9.859,0,0,1-3.9,4.4A10.108,10.108,0,0,1,892.6,136.5Zm0-3.4a6.391,6.391,0,0,0,4.2-1.3,7.561,7.561,0,0,0,2.4-3.4,13.445,13.445,0,0,0,.8-4.6,13.886,13.886,0,0,0-.8-4.6,7.056,7.056,0,0,0-2.4-3.4,7.435,7.435,0,0,0-8.4,0,7.561,7.561,0,0,0-2.4,3.4,13.445,13.445,0,0,0-.8,4.6,13.886,13.886,0,0,0,.8,4.6,7.561,7.561,0,0,0,2.4,3.4A6.576,6.576,0,0,0,892.6,133.1Zm20.7-11.9V136h-3.8V111.5h3.6v3.8h.3a7.476,7.476,0,0,1,2.6-3,7.941,7.941,0,0,1,4.5-1.2,8.932,8.932,0,0,1,4.4,1,7.274,7.274,0,0,1,2.9,3.1,11.489,11.489,0,0,1,1,5.2V136H925V120.7a6.438,6.438,0,0,0-1.5-4.5,5.279,5.279,0,0,0-4.1-1.6,6.6,6.6,0,0,0-3.2.8,5.437,5.437,0,0,0-2.2,2.3A7.281,7.281,0,0,0,913.3,121.2Z" fill="#374a87"/><path d="M319.8,46.5l6.6,1.8c-9,22.9-27.1,34.3-52.2,40.6a29.492,29.492,0,0,0-3.9-5.8C295,77.9,312.3,67.2,319.8,46.5ZM293.1,32.4l6.2,2.4c-5.8,7.9-15,15.6-23,20.6a33.225,33.225,0,0,0-5-4.9C279.4,46.2,288.1,39.4,293.1,32.4Zm3.3,14.5c7.6,19.4,24.3,31.7,49.7,35.8a29.684,29.684,0,0,0-4.1,5.9c-26.2-5-42.6-18.1-51.4-39.9ZM272,23.9h72v6H272ZM304.6,13h6.3V27.7h-6.3Zm13,22.8,5.1-3.8c7.7,5.2,17.4,12.8,22.1,18.2l-5.3,4.3C335,49.1,325.5,41.2,317.6,35.8Zm54.2,9.7v29H366V51.2H354V45.5Zm0,26.6c4,6.1,11.1,8.9,20.7,9.2,9,.4,28,.2,37.8-.5a33.568,33.568,0,0,0-2,6.1c-9.1.4-26.6.6-35.8.2-10.7-.4-18.2-3.3-23.3-9.8-4.2,3.5-8.6,7.1-13.3,10.7l-3-6.1a120.037,120.037,0,0,0,13.5-9.8h5.4ZM355.4,18.9l4.3-3.9c5.2,3.7,11.4,9.3,14.1,13.3l-4.7,4.3C366.5,28.5,360.6,22.7,355.4,18.9Zm32.8,8,3.9-3.4c7.7,2.7,18,7.2,23.5,10.5l-4.2,3.9C406.3,34.6,396.1,29.9,388.2,26.9Zm-7.8,6.9h42.4v4.8H386.2V76.3h-5.8Zm39.4,0h5.9V70.1c0,3-.6,4.4-2.8,5.3-2.1,1-5.6,1-11.1,1a18.02,18.02,0,0,0-1.7-5.1c3.9.2,7.3.1,8.4.1s1.3-.3,1.3-1.4V33.8ZM380.4,16.6h40.9v4.9H380.4Zm3.2,29.2h38.6v4.6H383.6Zm0,12h38.6v4.8H383.6Zm16.4-22h5.6V76H400Zm19.3-19.2h1.4l1.3-.3,3.8,3c-5.5,5.2-13.8,10.2-21.2,13.4a38.1,38.1,0,0,0-3.3-3.6c6.7-2.6,14.4-7.4,18-11.2V16.6ZM483.5,18h24.6v5.8H489.5V88.6h-6Zm-43.7,4.2H479v5.5H439.8Zm-2.2,22.7H480v5.7H437.6Zm18.7-31.5h6V25.5h-6ZM444.9,30.6l5.2-1.1A57.233,57.233,0,0,1,454,42.7L448.5,44A62.432,62.432,0,0,0,444.9,30.6Zm23.5-1.7,5.9,1.4c-1.8,4.8-3.8,10.3-5.6,13.9l-4.9-1.3A109.192,109.192,0,0,0,468.4,28.9Zm-23,49.5h27v5.5h-27Zm-2.3-20.7h32.3V88.2h-5.9v-25H448.8V88.6h-5.7V57.7ZM506.4,18h1.2l1-.2,4.5,2.9c-3.4,7.7-7.6,17.2-11.4,24.8,8.3,7.6,10.2,14.1,10.3,20,0,5-1.1,8.9-4,10.8a14.338,14.338,0,0,1-5.4,1.8,55.254,55.254,0,0,1-7.1.1,16.043,16.043,0,0,0-1.7-6.1c2.4.2,4.8.2,6.4.2a7.57,7.57,0,0,0,3.5-1c1.8-1.1,2.4-3.4,2.4-6.5-.1-5.2-2.5-11.3-10.7-18.5,4.2-8.4,8.6-19.8,11.1-26.2V18Zm19.4,9.8h66.1V66.4h-6.4V33.9H532v33h-6.2V27.8Zm3.3,27.9h60.1v6H529.1Zm26.4-42.6h6.4V88.5h-6.4Zm50.2,38.6h73.6v6.1H605.7Zm9.1-27.1h56V54.3h-6.4V30.6H621V54.3h-6.2Zm31.6,28.1c5,16,16.3,26.3,34.8,30.2a24.811,24.811,0,0,0-4,5.6c-19.2-4.8-30.6-16.2-36.4-34.4ZM639,13.1h6.2V39.4c0,18.9-4,38.5-36.7,49.3a19.938,19.938,0,0,0-3.4-5.3c30.4-9.9,33.9-27.3,33.9-44Zm66,7.6h55.8v4.9H705Zm.4,10.1h49.1v4.8H705.4Zm-8.5,10.1h48.9v4.9H696.9Zm-5.2,21.2h49.5V67H691.7ZM706.6,13l6.5,1.6c-4.4,10.8-11.6,20.8-19,27.2a40.721,40.721,0,0,0-5.7-3.9C696,32.1,702.8,22.9,706.6,13Zm37.1,27.9h6.1c.3,21.4,2.1,41.6,8,41.6,1.5,0,2-4.7,2.1-11.9a15.98,15.98,0,0,0,4.2,3.7c-.5,10.2-1.8,14.3-6.7,14.3C746,88.6,744.3,67.7,743.7,40.9ZM697.3,51l4.7-2a35.531,35.531,0,0,1,6.6,10.3l-5,2.1A38.01,38.01,0,0,0,697.3,51ZM716,71.2l3.9-3.4c7,3.8,15.9,9.5,20.5,13.4l-4.1,3.9C731.9,81,723,75.1,716,71.2Zm-2.3-23.6h5.8V88.4h-5.8Zm17.9,1,5.4,2c-3,3.9-6.3,8.2-8.9,11L724,59.9A79.845,79.845,0,0,0,731.6,48.6ZM712,64l4.6,1.8c-5.2,8.4-14.9,16.8-23.1,21.2a33.112,33.112,0,0,0-3.9-4.5C697.7,78.8,707.1,71.3,712,64Zm83.7-9.5,4-3.1c19.6,11.2,21.4,29.6,13,35.1a13.579,13.579,0,0,1-8.2,2.3c-1.8,0-4.3-.1-6.7-.2a13.847,13.847,0,0,0-1.7-5.6,69.834,69.834,0,0,0,7.4.3,8.575,8.575,0,0,0,5.3-1.3C814.3,78.4,812.5,64.5,795.7,54.5Zm8.5,2.7,4.3,2.3c-7.2,5.8-20.3,11.4-30.4,13.9a29.264,29.264,0,0,0-3.4-4.3C784.7,67,797.6,62.2,804.2,57.2Zm5.5,7.5,4.4,2.5c-8.8,8.4-24.6,16.1-37.2,19.8a37.967,37.967,0,0,0-3.7-4.7C786.1,79.1,801.6,72.1,809.7,64.7ZM793.8,18.6H818v4.9H793.8Zm15.1,26.3,4.8,2.3c-9,6.4-23.9,11.6-36.2,14.6a42.929,42.929,0,0,0-3.3-4.5C786.5,54.9,800.8,50.3,808.9,44.9ZM816,46c4.8,16.7,15.3,29.8,31.4,35a18.177,18.177,0,0,0-3.9,5.1c-16.7-6.3-27.2-20.1-32.6-38.9Zm23.8,3.5,5,3.7a156.425,156.425,0,0,1-21.3,12.6l-3.9-3.2A113.017,113.017,0,0,0,839.8,49.5ZM787.7,34.4v9.4h44.9V34.4Zm-5.8-4.7h56.7V48.6H781.9Zm14.2-16.8,6.4,1.3a84.358,84.358,0,0,1-25.3,23.7,19.068,19.068,0,0,0-4.2-4.3C783.7,27.7,791.7,19.6,796.1,12.9ZM806.6,32h6.1V46.6h-6.1Zm9.1-13.4H817l1-.2,4.2,2.7a56.8,56.8,0,0,1-10.6,13c-1.1-.8-3.1-2.1-4.5-2.9a40.761,40.761,0,0,0,8.6-11.4Zm90.1,2.3v8h13.9v-8Zm-19.4,0v8H900v-8Zm-18.7,0v8h13.1v-8Zm-6-4.5h64v17h-64Zm-4.6,33.9h73v5.1h-73Zm8.2-11.2h47.2V44H865.3Zm12.1,31.8H919v4.3H877.4Zm-.2,10.3h41.7v4.7H877.2Zm43.7-45,4.9,3.1c-16.1,15.8-42.4,26.3-67.4,32.5a31.01,31.01,0,0,0-3.1-5.2C880.3,61.1,906.2,50.8,920.9,36.2ZM888,33.4h6V52.7h-6Zm-8,27.5h39.4v4.6H880v23h-5.7v-24l3.5-3.5H880Zm36.5,0h5.9V88.3h-5.9Z" fill="#374a87"/></g></svg>